<svg xmlns="http://www.w3.org/2000/svg" width="164.011" height="47.066" viewBox="0 0 164.011 47.066">
  <g id="Group_6322" data-name="Group 6322" transform="translate(-648.327 -4409)">
    <path id="Path_6662" data-name="Path 6662" d="M231.214,214.63a4.718,4.718,0,0,1-4.722,4.718H71.932A4.724,4.724,0,0,1,67.2,214.63V177.005a4.729,4.729,0,0,1,4.729-4.724h154.56a4.722,4.722,0,0,1,4.722,4.724V214.63Z" transform="translate(581.124 4236.719)" fill="#030504"/>
    <path id="Path_6735" data-name="Path 6735" d="M-89.055-2.812q.037.242.084.428a.822.822,0,0,0,.15.315.628.628,0,0,0,.282.194,1.426,1.426,0,0,0,.48.066V.183h-.183A1.639,1.639,0,0,1-89.048,0,1.522,1.522,0,0,1-89.6-.571h-.044A2.054,2.054,0,0,1-90.374,0a2.234,2.234,0,0,1-.952.194,3.635,3.635,0,0,1-.721-.073q-.363-.073-.714-.165t-.681-.165a2.846,2.846,0,0,0-.615-.073,1.1,1.1,0,0,0-.454.081.633.633,0,0,0-.271.223.861.861,0,0,0-.128.341A2.684,2.684,0,0,0-94.944.8q0,.212.026.516t.084.685q.059.381.161.828t.256.938h-1.641q-.22-.945-.341-1.67A7.974,7.974,0,0,1-96.519.8a3.977,3.977,0,0,1,.132-1.062,2.789,2.789,0,0,1,.374-.831,2.258,2.258,0,0,1,.586-.593,2.286,2.286,0,0,1,.762-.341,8.991,8.991,0,0,1,.417-1.428,6.3,6.3,0,0,1,.513-1.036,3.875,3.875,0,0,1,.557-.707,2.964,2.964,0,0,1,.553-.436,1.92,1.92,0,0,1,.5-.216,1.681,1.681,0,0,1,.4-.059,1.852,1.852,0,0,1,1,.286,3.04,3.04,0,0,1,.8.732,4.238,4.238,0,0,1,.568,1A4.759,4.759,0,0,1-89.055-2.812Zm-2.278,1.091a1.782,1.782,0,0,0,.278-.022.786.786,0,0,0,.249-.081.448.448,0,0,0,.176-.168.55.55,0,0,0,.066-.286,1.562,1.562,0,0,0-.092-.458,2.522,2.522,0,0,0-.26-.553,1.865,1.865,0,0,0-.406-.465.82.82,0,0,0-.531-.194.8.8,0,0,0-.472.146,1.564,1.564,0,0,0-.385.4,3.107,3.107,0,0,0-.315.6q-.139.348-.256.751.483.088.963.205A4.136,4.136,0,0,0-91.333-1.721Zm4.241,1.9h-.967a.41.41,0,0,1-.385-.267,1.711,1.711,0,0,1-.128-.729,1.711,1.711,0,0,1,.128-.729.41.41,0,0,1,.385-.267h1.04a4.717,4.717,0,0,0,.535-.026.79.79,0,0,0,.359-.121.533.533,0,0,0,.2-.289,1.835,1.835,0,0,0,.062-.538V-6.262h1.56v2.974q0,.381.022.659a.963.963,0,0,0,.143.461.707.707,0,0,0,.374.271,2.268,2.268,0,0,0,.714.088V.183h-.337a2.68,2.68,0,0,1-1.091-.2,1.3,1.3,0,0,1-.667-.641h-.044a1.808,1.808,0,0,1-.425.417A2.273,2.273,0,0,1-86.1.015a2.4,2.4,0,0,1-.509.132A3.426,3.426,0,0,1-87.092.183Zm1.062,2.534h-1.721V1.172h1.721Zm2.5,0h-1.721V1.172h1.721Zm2.542-4.526a3.158,3.158,0,0,1-.857-.963,2.411,2.411,0,0,1-.308-1.2,3.31,3.31,0,0,1,.1-.776,3.823,3.823,0,0,1,.271-.762,3.978,3.978,0,0,1,.417-.685,3.5,3.5,0,0,1,.527-.56,2.308,2.308,0,0,1,.615-.377,1.757,1.757,0,0,1,.674-.135,1.675,1.675,0,0,1,.765.183,2.5,2.5,0,0,1,.67.5,3.845,3.845,0,0,1,.553.74,5.422,5.422,0,0,1,.417.9,6.118,6.118,0,0,1,.264.992,5.7,5.7,0,0,1,.092,1,3.124,3.124,0,0,1-.183,1.1q.154.015.3.022l.311.015q.165.007.363.007h.461V.183h-.256q-.322,0-.685-.026T-77.2.081q-.366-.051-.721-.135a5.29,5.29,0,0,1-.663-.2,4.923,4.923,0,0,1-.809.242,8.416,8.416,0,0,1-.839.132q-.417.044-.813.055t-.725.011h-1.274a.41.41,0,0,1-.385-.267,1.711,1.711,0,0,1-.128-.729,1.711,1.711,0,0,1,.128-.729.41.41,0,0,1,.385-.267h.732q.139,0,.337.011l.392.022.355.018q.161.007.227.007Zm1.348-3.428A.6.6,0,0,0-80-5.1a1.354,1.354,0,0,0-.308.326,1.8,1.8,0,0,0-.209.41,1.181,1.181,0,0,0-.077.392.883.883,0,0,0,.07.311,1.332,1.332,0,0,0,.278.4,3.7,3.7,0,0,0,.6.491,7.9,7.9,0,0,0,1.025.575.5.5,0,0,0,.132-.172,1.359,1.359,0,0,0,.084-.223,1.319,1.319,0,0,0,.044-.234q.011-.117.011-.205a2.509,2.509,0,0,0-.106-.659,3.733,3.733,0,0,0-.286-.725A2.47,2.47,0,0,0-79.156-5,.671.671,0,0,0-79.636-5.237Zm-.439-3.552H-81.8v-1.545h1.721Zm2.5,0h-1.721v-1.545h1.721Zm3,8.972h-.967a.41.41,0,0,1-.385-.267,1.711,1.711,0,0,1-.128-.729,1.711,1.711,0,0,1,.128-.729.41.41,0,0,1,.385-.267h1.04a4.717,4.717,0,0,0,.535-.026.79.79,0,0,0,.359-.121.533.533,0,0,0,.2-.289,1.835,1.835,0,0,0,.062-.538V-6.262h1.56v2.974q0,.381.022.659a.963.963,0,0,0,.143.461.707.707,0,0,0,.374.271,2.268,2.268,0,0,0,.714.088V.183h-.337a2.68,2.68,0,0,1-1.091-.2,1.3,1.3,0,0,1-.667-.641h-.044a1.808,1.808,0,0,1-.425.417,2.273,2.273,0,0,1-.487.256,2.4,2.4,0,0,1-.509.132A3.426,3.426,0,0,1-74.568.183Zm1.626-7.917h-1.721V-9.28h1.721Zm2.5,0h-1.721V-9.28h1.721Zm2.783,7.09a2.211,2.211,0,0,1-.45.4,2.462,2.462,0,0,1-.505.256,2.723,2.723,0,0,1-.52.135,3.234,3.234,0,0,1-.494.04h-.9a.41.41,0,0,1-.385-.267,1.711,1.711,0,0,1-.128-.729,1.711,1.711,0,0,1,.128-.729.41.41,0,0,1,.385-.267h.974a2.986,2.986,0,0,0,.4-.029,1.116,1.116,0,0,0,.4-.132.87.87,0,0,0,.308-.3.945.945,0,0,0,.125-.516v-2.08h1.553v1.6q0,.374.022.648a1.085,1.085,0,0,0,.125.454.623.623,0,0,0,.315.267,1.6,1.6,0,0,0,.593.088,3.424,3.424,0,0,0,.425-.026.91.91,0,0,0,.363-.121.7.7,0,0,0,.256-.289,1.2,1.2,0,0,0,.1-.538v-2.08h1.56v1.575q0,.381.022.659a1.083,1.083,0,0,0,.128.461.632.632,0,0,0,.337.271,1.888,1.888,0,0,0,.648.088,3.756,3.756,0,0,0,.421-.022.725.725,0,0,0,.337-.121.645.645,0,0,0,.223-.293,1.444,1.444,0,0,0,.081-.538V-6.262h1.56v2.93q0,.388.022.674a1,1,0,0,0,.143.472.735.735,0,0,0,.374.282,2.1,2.1,0,0,0,.714.1V.183h-.337A2.667,2.667,0,0,1-59.348.015a1.438,1.438,0,0,1-.674-.586,1.906,1.906,0,0,1-.414.374A2.117,2.117,0,0,1-60.9.033,2.469,2.469,0,0,1-61.4.15a3.821,3.821,0,0,1-.494.033,3.932,3.932,0,0,1-.564-.04,2.606,2.606,0,0,1-.527-.132,1.77,1.77,0,0,1-.461-.253,1.531,1.531,0,0,1-.366-.4h-.029a2.053,2.053,0,0,1-.443.4,2.462,2.462,0,0,1-.505.256A2.735,2.735,0,0,1-65.3.143a3.121,3.121,0,0,1-.483.04A2.847,2.847,0,0,1-66.9-.007a1.571,1.571,0,0,1-.725-.637ZM-53.2.183a3.505,3.505,0,0,1-.743-.077,3.561,3.561,0,0,1-.674-.216,4.152,4.152,0,0,1-.6-.322,3.362,3.362,0,0,1-.509-.4,2.32,2.32,0,0,1-1,.791,3.3,3.3,0,0,1-1.23.227H-58a.41.41,0,0,1-.385-.267,1.711,1.711,0,0,1-.128-.729,1.711,1.711,0,0,1,.128-.729A.41.41,0,0,1-58-1.809h.1a1.571,1.571,0,0,0,.762-.165,1.664,1.664,0,0,0,.505-.421,2.475,2.475,0,0,0,.341-.571q.135-.315.275-.615a7.684,7.684,0,0,1,.436-.82,3.229,3.229,0,0,1,.553-.681,2.442,2.442,0,0,1,.725-.465,2.445,2.445,0,0,1,.952-.172,2.572,2.572,0,0,1,1.249.293,2.82,2.82,0,0,1,.9.758,3.3,3.3,0,0,1,.538,1.036A3.749,3.749,0,0,1-50.486-2.5a2.96,2.96,0,0,1-.19,1.073,2.474,2.474,0,0,1-.542.853,2.46,2.46,0,0,1-.853.56A2.994,2.994,0,0,1-53.2.183Zm-.205-3.94a1.282,1.282,0,0,0-.535.106,1.422,1.422,0,0,0-.421.293,2.084,2.084,0,0,0-.333.443,4.019,4.019,0,0,0-.264.564,2.149,2.149,0,0,0,.333.234,2.113,2.113,0,0,0,.392.172,2.546,2.546,0,0,0,.476.1,4.751,4.751,0,0,0,.586.033q.205,0,.406-.018a1.292,1.292,0,0,0,.359-.081.637.637,0,0,0,.253-.172.432.432,0,0,0,.1-.293,1.465,1.465,0,0,0-.066-.374,1.5,1.5,0,0,0-.223-.458,1.454,1.454,0,0,0-.417-.388A1.174,1.174,0,0,0-53.4-3.757Zm20.837.469q0,.381.022.659a.963.963,0,0,0,.143.461.707.707,0,0,0,.374.271,2.268,2.268,0,0,0,.714.088V.183h-.337a2.364,2.364,0,0,1-1.058-.216,1.385,1.385,0,0,1-.648-.656H-33.4a2.652,2.652,0,0,1-.857.513A5.61,5.61,0,0,1-35.376.1a11.61,11.61,0,0,1-1.4.117q-.765.022-1.674.022-.74,0-1.447-.015A13.2,13.2,0,0,1-41.224.135,7.1,7.1,0,0,1-42.371-.1a2.56,2.56,0,0,1-.879-.439,2,2,0,0,1-.443-.476,2.672,2.672,0,0,1-.289-.579,3.286,3.286,0,0,1-.157-.637,4.605,4.605,0,0,1-.048-.659,6.472,6.472,0,0,1,.077-1q.077-.491.2-.974h1.567q-.059.271-.1.487t-.077.4q-.033.187-.048.363t-.015.359a2.061,2.061,0,0,0,.077.579.939.939,0,0,0,.355.476,1.593,1.593,0,0,0,.553.26,5.23,5.23,0,0,0,.835.143q.5.051,1.2.062t1.652.011q1.143,0,1.879-.026a5.365,5.365,0,0,0,1.157-.139,1.006,1.006,0,0,0,.586-.348,1.119,1.119,0,0,0,.165-.652V-6.262h1.56Zm-6.021-4.446h-1.721V-9.28h1.721Zm2.5,0H-37.8V-9.28h1.721Zm6.833,5.925a3.158,3.158,0,0,1-.857-.963,2.411,2.411,0,0,1-.308-1.2,3.31,3.31,0,0,1,.1-.776,3.823,3.823,0,0,1,.271-.762,3.978,3.978,0,0,1,.417-.685,3.5,3.5,0,0,1,.527-.56,2.308,2.308,0,0,1,.615-.377,1.757,1.757,0,0,1,.674-.135,1.675,1.675,0,0,1,.765.183,2.5,2.5,0,0,1,.67.5,3.845,3.845,0,0,1,.553.74,5.422,5.422,0,0,1,.417.9,6.118,6.118,0,0,1,.264.992,5.7,5.7,0,0,1,.092,1,3.2,3.2,0,0,1-.216,1.245,2.466,2.466,0,0,1-.59.861,2.892,2.892,0,0,1-.864.553,5.269,5.269,0,0,1-1.047.311,8.294,8.294,0,0,1-1.139.135q-.582.029-1.132.029h-1.274A.41.41,0,0,1-31.7-.084a1.711,1.711,0,0,1-.128-.729,1.711,1.711,0,0,1,.128-.729.41.41,0,0,1,.385-.267h.732q.139,0,.337.011l.392.022.355.018q.161.007.227.007ZM-27.9-5.237a.6.6,0,0,0-.366.132,1.354,1.354,0,0,0-.308.326,1.8,1.8,0,0,0-.209.41,1.181,1.181,0,0,0-.077.392.883.883,0,0,0,.07.311,1.332,1.332,0,0,0,.278.4,3.7,3.7,0,0,0,.6.491,7.9,7.9,0,0,0,1.025.575.5.5,0,0,0,.132-.172,1.359,1.359,0,0,0,.084-.223,1.319,1.319,0,0,0,.044-.234q.011-.117.011-.205a2.509,2.509,0,0,0-.106-.659,3.733,3.733,0,0,0-.286-.725A2.47,2.47,0,0,0-27.418-5,.671.671,0,0,0-27.9-5.237Zm.813-3.552h-1.721v-1.545h1.721ZM-20.369.183A2.723,2.723,0,0,1-21.6-.059a1.978,1.978,0,0,1-.762-.656,2.549,2.549,0,0,1-.388-.967,6.228,6.228,0,0,1-.106-1.176V-11.1h1.56v7.815a5.5,5.5,0,0,0,.037.692,1.006,1.006,0,0,0,.161.458.688.688,0,0,0,.374.253,2.4,2.4,0,0,0,.681.077V.183Zm1.3,0h-.967a.41.41,0,0,1-.385-.267,1.711,1.711,0,0,1-.128-.729,1.711,1.711,0,0,1,.128-.729.41.41,0,0,1,.385-.267H-19q.293,0,.513-.022a.786.786,0,0,0,.363-.117.561.561,0,0,0,.212-.289,1.682,1.682,0,0,0,.07-.546V-6.262h1.56v3.53a3.924,3.924,0,0,1-.231,1.461,2.227,2.227,0,0,1-.615.89,2.139,2.139,0,0,1-.89.443A4.52,4.52,0,0,1-19.072.183Zm1.062,2.461h-1.721V1.1h1.721Zm2.5,0h-1.721V1.1h1.721Zm.476-1.1q.505.146.846.209a3.5,3.5,0,0,0,.626.062,1.971,1.971,0,0,0,.967-.209A1.558,1.558,0,0,0-12,1.047a2.282,2.282,0,0,0,.289-.813,5.923,5.923,0,0,0,.077-.974,7.282,7.282,0,0,0-.066-.978,9.372,9.372,0,0,0-.2-1.014q-.132-.527-.326-1.113t-.443-1.282h1.729q.227.564.4,1.143t.289,1.157q.117.579.176,1.135A10.224,10.224,0,0,1-10.02-.623,6.347,6.347,0,0,1-10.3,1.384a3.994,3.994,0,0,1-.762,1.388,2.983,2.983,0,0,1-1.11.806,3.459,3.459,0,0,1-1.333.26,3.669,3.669,0,0,1-.707-.07,5.524,5.524,0,0,1-.817-.238ZM-4.644.212q-.417,0-.981-.048T-6.833,0l-.4-2.014q.82.117,1.49.176t1.2.059a2.671,2.671,0,0,0,1.154-.2.735.735,0,0,0,.4-.725,3,3,0,0,0-.205-1.058,6.787,6.787,0,0,0-.579-1.154q-.374-.608-.89-1.289T-5.8-7.676h2.043A16.116,16.116,0,0,1-2.706-6.368,10.065,10.065,0,0,1-1.919-5.09a6.632,6.632,0,0,1,.494,1.252,4.577,4.577,0,0,1,.172,1.223A3.2,3.2,0,0,1-1.516-1.23a2.182,2.182,0,0,1-.721.868A2.886,2.886,0,0,1-3.314.084,6.551,6.551,0,0,1-4.644.212Z" transform="translate(762 4437)" fill="#fff"/>
    <g id="_save_alt" data-name=" save_alt" transform="translate(328 2894)">
      <rect id="Path" width="25" height="25" transform="translate(440 1526)" fill="rgba(0,0,0,0)"/>
      <path id="Icon" d="M16.889,19H2.111A2.114,2.114,0,0,1,0,16.888V10.555a1.055,1.055,0,0,1,2.111,0v5.277a1.057,1.057,0,0,0,1.056,1.055H15.834a1.057,1.057,0,0,0,1.055-1.055V10.555a1.055,1.055,0,0,1,2.111,0v6.333A2.114,2.114,0,0,1,16.889,19ZM9.5,13.809A1.048,1.048,0,0,1,8.75,13.5l-3.79-3.79A1.053,1.053,0,1,1,6.45,8.222l1.995,1.984V1.055a1.055,1.055,0,0,1,2.111,0v9.151L12.54,8.222a1.053,1.053,0,1,1,1.489,1.489l-3.79,3.79A1.046,1.046,0,0,1,9.5,13.809Z" transform="translate(443 1529)" fill="#15d1c6"/>
    </g>
  </g>
</svg>
