<svg xmlns="http://www.w3.org/2000/svg" width="164.014" height="47.067" viewBox="0 0 164.014 47.067">
  <g id="Group_6723" data-name="Group 6723" transform="translate(-780 -197)">
    <g id="Group_6322" data-name="Group 6322" transform="translate(131.676 -4212)">
      <path id="Path_6662" data-name="Path 6662" d="M231.214,214.63a4.718,4.718,0,0,1-4.722,4.718H71.932A4.724,4.724,0,0,1,67.2,214.63V177.005a4.729,4.729,0,0,1,4.729-4.724h154.56a4.722,4.722,0,0,1,4.722,4.724V214.63Z" transform="translate(581.124 4236.719)" fill="#030504"/>
      <g id="_save_alt" data-name=" save_alt" transform="translate(328 2894)">
        <rect id="Path" width="25" height="25" transform="translate(440 1526)" fill="rgba(0,0,0,0)"/>
        <path id="Icon" d="M16.889,19H2.111A2.114,2.114,0,0,1,0,16.888V10.555a1.056,1.056,0,0,1,2.111,0v5.277a1.057,1.057,0,0,0,1.056,1.055H15.834a1.057,1.057,0,0,0,1.055-1.055V10.555a1.056,1.056,0,0,1,2.111,0v6.333A2.114,2.114,0,0,1,16.889,19ZM9.5,13.809a1.048,1.048,0,0,1-.75-.309L4.96,9.71A1.053,1.053,0,1,1,6.45,8.222l1.995,1.984V1.055a1.056,1.056,0,1,1,2.111,0v9.151L12.54,8.222a1.053,1.053,0,1,1,1.489,1.489l-3.79,3.79a1.046,1.046,0,0,1-.739.308Z" transform="translate(443 1529)" fill="#15d1c6"/>
      </g>
    </g>
    <path id="Path_4385" data-name="Path 4385" d="M2.42-3.146a10.717,10.717,0,0,0-.434,1.295,4.7,4.7,0,0,0-.176,1.2A2.015,2.015,0,0,0,2.364.932a2.758,2.758,0,0,0,1.819.492A5.026,5.026,0,0,0,5.473,1.26,3,3,0,0,0,6.492.8a.842.842,0,0,0,.4-.686A.166.166,0,0,0,6.8-.053a.621.621,0,0,0-.246-.041H5.707A1.674,1.674,0,0,1,4.474-.533a1.673,1.673,0,0,1-.442-1.242,2.747,2.747,0,0,1,.375-1.406A2.891,2.891,0,0,1,5.435-4.219a2.838,2.838,0,0,1,1.491-.393,3.766,3.766,0,0,1,.656.07,3.681,3.681,0,0,1,.721.205l-.27,1.412Q7.781-3,7.506-3.056a2.923,2.923,0,0,0-.58-.056,1.411,1.411,0,0,0-.817.22,1.392,1.392,0,0,0-.469.516,1.192,1.192,0,0,0-.149.524.307.307,0,0,0,.05.205.327.327,0,0,0,.226.053H6.7a1.489,1.489,0,0,1,1.2.478A1.724,1.724,0,0,1,8.309.047,2.3,2.3,0,0,1,7.755,1.6a3.483,3.483,0,0,1-1.485.984,5.963,5.963,0,0,1-2.057.34A4.137,4.137,0,0,1,1.374,2.01,3.423,3.423,0,0,1,.34-.7,5.536,5.536,0,0,1,.548-2.156a12.08,12.08,0,0,1,.536-1.535ZM11.895-.07a2.833,2.833,0,0,1-.615.07A2.606,2.606,0,0,1,9.6-.489a1.784,1.784,0,0,1-.609-1.479A3.5,3.5,0,0,1,9.123-2.9a2.921,2.921,0,0,1,.4-.864,2.075,2.075,0,0,1,.674-.636,1.875,1.875,0,0,1,.97-.24,1.841,1.841,0,0,1,1.061.3,2.27,2.27,0,0,1,.715.8,4.016,4.016,0,0,1,.4,1.11,5.9,5.9,0,0,1,.129,1.225,4.156,4.156,0,0,1-1.02,2.912A5.117,5.117,0,0,1,9.492,3.182L8.965,1.834a5.19,5.19,0,0,0,1.916-.7A2.433,2.433,0,0,0,11.895-.07Zm.117-1.512a2.63,2.63,0,0,0-.316-1.21.7.7,0,0,0-.58-.343.487.487,0,0,0-.4.188,1.183,1.183,0,0,0-.217.454,2.029,2.029,0,0,0-.067.5.434.434,0,0,0,.164.384,1.437,1.437,0,0,0,.715.114A2.986,2.986,0,0,0,12.012-1.582Zm2.5-6.844a.7.7,0,0,0-.492.229,6.717,6.717,0,0,0-.469.51l-.709-.568a4.373,4.373,0,0,1,.688-.771,1.246,1.246,0,0,1,.841-.331,1.367,1.367,0,0,1,.521.105l.5.208a1.219,1.219,0,0,0,.469.1.92.92,0,0,0,.445-.126q.229-.126.51-.272l.463.785a6.039,6.039,0,0,1-.659.354,1.706,1.706,0,0,1-.724.161,1.3,1.3,0,0,1-.5-.1q-.237-.1-.46-.193A1.085,1.085,0,0,0,14.508-8.426ZM14.443-7.3H15.9V-.006H14.443Zm4.594,2.66a1.817,1.817,0,0,1,1.582.809,4.791,4.791,0,0,1,.7,2.309h.469V0h-.568q-.6,2.578-3.844,3.182l-.527-1.348a5.214,5.214,0,0,0,1.9-.68A2.582,2.582,0,0,0,19.764,0h-.521A2.748,2.748,0,0,1,17.5-.492a1.77,1.77,0,0,1-.621-1.477A3.5,3.5,0,0,1,17-2.9a2.964,2.964,0,0,1,.393-.864,2.046,2.046,0,0,1,.671-.636A1.875,1.875,0,0,1,19.037-4.641Zm.855,3.117a2.872,2.872,0,0,0-.325-1.271.7.7,0,0,0-.583-.34.475.475,0,0,0-.39.188,1.183,1.183,0,0,0-.217.454,2.029,2.029,0,0,0-.067.5.425.425,0,0,0,.149.36,1.412,1.412,0,0,0,.724.114ZM25-6.117q.779.381,1.55.809a11.941,11.941,0,0,1,1.406.908,4.868,4.868,0,0,1,1.017,1A1.834,1.834,0,0,1,29.35-2.3a2.215,2.215,0,0,1-.328,1.239,2.023,2.023,0,0,1-.9.753,3.206,3.206,0,0,1-1.3.252,6.63,6.63,0,0,1-1.23-.123,9.3,9.3,0,0,1-1.072-.258,8.042,8.042,0,0,1-1.151.311A6.431,6.431,0,0,1,22.107,0h-.557V-1.523h.486q.234,0,.416,0t.363-.021a2.147,2.147,0,0,1-.486-1.418,2.007,2.007,0,0,1,.275-1.066,2.071,2.071,0,0,1,.729-.718,2.336,2.336,0,0,1,.993-.313,1.936,1.936,0,0,1,.264.006l-.135-.076Zm-.387,4.225a1.378,1.378,0,0,0,.592-.469,1.077,1.077,0,0,0,.2-.586.7.7,0,0,0-.779-.8A.842.842,0,0,0,24-3.527a.741.741,0,0,0-.22.551,1.053,1.053,0,0,0,.205.606A1.423,1.423,0,0,0,24.609-1.893Zm1.869-1.775a.833.833,0,0,1,.152.281,1.153,1.153,0,0,1,.041.322,2.36,2.36,0,0,1-.551,1.547q.135.012.278.018t.255.006a1.673,1.673,0,0,0,.917-.193.673.673,0,0,0,.284-.6.976.976,0,0,0-.343-.583A5.963,5.963,0,0,0,26.479-3.668Zm8.6.521a10.717,10.717,0,0,0-.434,1.295,4.7,4.7,0,0,0-.176,1.2A2.015,2.015,0,0,0,35.024.932a2.758,2.758,0,0,0,1.819.492,5.026,5.026,0,0,0,1.289-.164A3,3,0,0,0,39.152.8a.842.842,0,0,0,.4-.686.166.166,0,0,0-.094-.17.621.621,0,0,0-.246-.041h-.844a1.674,1.674,0,0,1-1.233-.439,1.673,1.673,0,0,1-.442-1.242,2.747,2.747,0,0,1,.375-1.406,2.891,2.891,0,0,1,1.028-1.037,2.838,2.838,0,0,1,1.491-.393,3.766,3.766,0,0,1,.656.07,3.681,3.681,0,0,1,.721.205l-.27,1.412q-.252-.076-.527-.132a2.923,2.923,0,0,0-.58-.056,1.411,1.411,0,0,0-.817.22,1.392,1.392,0,0,0-.469.516,1.192,1.192,0,0,0-.149.524.307.307,0,0,0,.05.205.327.327,0,0,0,.226.053h.938a1.489,1.489,0,0,1,1.2.478,1.724,1.724,0,0,1,.41,1.163A2.3,2.3,0,0,1,40.415,1.6a3.483,3.483,0,0,1-1.485.984,5.963,5.963,0,0,1-2.057.34,4.137,4.137,0,0,1-2.839-.914A3.423,3.423,0,0,1,33-.7a5.536,5.536,0,0,1,.208-1.459,12.08,12.08,0,0,1,.536-1.535ZM44.52,0h-.146a2.434,2.434,0,0,1-1.79-.63,2.685,2.685,0,0,1-.636-1.978V-8.121h1.459V-2.6a1.184,1.184,0,0,0,.231.87,1.081,1.081,0,0,0,.735.208h.146ZM47.73-6.117q.779.381,1.55.809a11.941,11.941,0,0,1,1.406.908,4.868,4.868,0,0,1,1.017,1A1.834,1.834,0,0,1,52.084-2.3a2.215,2.215,0,0,1-.328,1.239,2.023,2.023,0,0,1-.9.753,3.206,3.206,0,0,1-1.3.252,6.63,6.63,0,0,1-1.23-.123A9.3,9.3,0,0,1,47.25-.439,8.042,8.042,0,0,1,46.1-.129,6.431,6.431,0,0,1,44.842,0h-.557V-1.523h.486q.234,0,.416,0t.363-.021a2.147,2.147,0,0,1-.486-1.418,2.007,2.007,0,0,1,.275-1.066,2.071,2.071,0,0,1,.729-.718,2.336,2.336,0,0,1,.993-.313,1.936,1.936,0,0,1,.264.006l-.135-.076Zm-.387,4.225a1.378,1.378,0,0,0,.592-.469,1.077,1.077,0,0,0,.2-.586.7.7,0,0,0-.779-.8.842.842,0,0,0-.618.217.741.741,0,0,0-.22.551,1.053,1.053,0,0,0,.205.606A1.423,1.423,0,0,0,47.344-1.893Zm1.869-1.775a.833.833,0,0,1,.152.281,1.153,1.153,0,0,1,.041.322,2.36,2.36,0,0,1-.551,1.547q.135.012.278.018t.255.006a1.673,1.673,0,0,0,.917-.193.673.673,0,0,0,.284-.6.976.976,0,0,0-.343-.583A5.963,5.963,0,0,0,49.213-3.668Zm5.32-2.355A10.294,10.294,0,0,1,56.7-4.043a3.154,3.154,0,0,1,.791,1.91,2.026,2.026,0,0,1-.3,1.119,2.01,2.01,0,0,1-.841.732,2.771,2.771,0,0,1-1.216.258,2.643,2.643,0,0,1-1.7-.527,1.9,1.9,0,0,1-.662-1.582,2.837,2.837,0,0,1,.3-1.245,6.21,6.21,0,0,1,.885-1.3L53.7-4.9Zm.516,2.379a3.175,3.175,0,0,0-.645.814,1.519,1.519,0,0,0-.193.668.613.613,0,0,0,.182.466,1.091,1.091,0,0,0,.727.173,1.23,1.23,0,0,0,.741-.152.614.614,0,0,0,.179-.492,1.347,1.347,0,0,0-.231-.636A3.575,3.575,0,0,0,55.049-3.645ZM61.031,0h-.146a2.434,2.434,0,0,1-1.79-.63,2.685,2.685,0,0,1-.636-1.978V-8.121h1.459V-2.6a1.184,1.184,0,0,0,.231.87,1.081,1.081,0,0,0,.735.208h.146Zm1.617-5.924q.51.416,1.046.87a8.176,8.176,0,0,1,.987.993A4.363,4.363,0,0,1,65.4-2.854a2.6,2.6,0,0,0,.633,1.017,1.246,1.246,0,0,0,.85.313h.17V0h-.17a2.667,2.667,0,0,1-1.134-.237,2.761,2.761,0,0,1-.905-.677,2.4,2.4,0,0,1-1.119.694A6.3,6.3,0,0,1,61.887,0H60.8V-1.523h1.084a6.236,6.236,0,0,0,1.26-.1,1.143,1.143,0,0,0,.6-.278.632.632,0,0,0,.164-.439,1.25,1.25,0,0,0-.381-.753,10.033,10.033,0,0,0-.979-.955L61.307-5.121a1,1,0,0,1-.287-.4,1.268,1.268,0,0,1-.094-.475,1.162,1.162,0,0,1,.2-.662,1.15,1.15,0,0,1,.565-.434l4.436-1.652v1.529Zm3.43-3.4L61.521-7.63v-.74l4.558-1.693ZM71.543,0H71.4a1.894,1.894,0,0,1-1.611-.7,2.131,2.131,0,0,1-.9.533A4.005,4.005,0,0,1,67.688,0h-.873V-1.523H67.7a3.462,3.462,0,0,0,.85-.079.592.592,0,0,0,.4-.293,1.369,1.369,0,0,0,.108-.606q0-.34-.021-.7t-.044-.686l1.43-.17.111,1.693a.973.973,0,0,0,.229.65.912.912,0,0,0,.65.193h.129Zm-2.76-5.959.955-.949.955.955L69.738-5Zm-1.975,0,.955-.949.955.949L67.764-5ZM78.182-1.523a.5.5,0,0,0,.416-.22,1.52,1.52,0,0,0,.164-.847,4.214,4.214,0,0,0-.1-.794q-.1-.483-.214-.923l1.406-.352q.146.48.264.987a4.4,4.4,0,0,1,.117.993,4.277,4.277,0,0,1-.193,1.3,2.09,2.09,0,0,1-.645.99A1.842,1.842,0,0,1,78.188,0a1.674,1.674,0,0,1-1.453-.686A2.063,2.063,0,0,1,75.152,0a1.8,1.8,0,0,1-1.564-.68,1.818,1.818,0,0,1-.785.516A3.33,3.33,0,0,1,71.713,0h-.4V-1.523h.416a1.577,1.577,0,0,0,.923-.2.957.957,0,0,0,.261-.791q0-.135-.026-.53t-.05-.718l1.436-.176.111,1.57q.059.844.785.844a.817.817,0,0,0,.662-.229,1.21,1.21,0,0,0,.188-.762q0-.082-.012-.3t-.029-.475q-.018-.261-.035-.478l1.436-.176.111,1.57Q77.543-1.523,78.182-1.523Zm2.736-.211q.369.076.791.141a4.912,4.912,0,0,0,.727.064,3.4,3.4,0,0,0,1.521-.237.692.692,0,0,0,.425-.6A1.878,1.878,0,0,0,83.7-3.516a10.481,10.481,0,0,0-1.843-1.424l.832-1.254A10.2,10.2,0,0,1,85.02-4.377a2.925,2.925,0,0,1,.861,1.992A2,2,0,0,1,85-.6a4.474,4.474,0,0,1-2.487.586,6.32,6.32,0,0,1-.835-.053q-.4-.053-.759-.129ZM91.3-6.023a10.294,10.294,0,0,1,2.162,1.98,3.154,3.154,0,0,1,.791,1.91,2.026,2.026,0,0,1-.3,1.119,2.01,2.01,0,0,1-.841.732,2.771,2.771,0,0,1-1.216.258,2.643,2.643,0,0,1-1.7-.527,1.9,1.9,0,0,1-.662-1.582,2.837,2.837,0,0,1,.3-1.245,6.21,6.21,0,0,1,.885-1.3L90.469-4.9Zm.516,2.379a3.175,3.175,0,0,0-.645.814,1.519,1.519,0,0,0-.193.668.613.613,0,0,0,.182.466,1.091,1.091,0,0,0,.727.173,1.23,1.23,0,0,0,.741-.152.614.614,0,0,0,.179-.492,1.347,1.347,0,0,0-.231-.636A3.575,3.575,0,0,0,91.816-3.645ZM95.15-6.773l.9-.9.908.9-.908.908Zm1.008,1.535.9-.9.908.9-.908.908Zm-1.992,0,.9-.9.908.9-.908.908ZM97.594-.176a3.888,3.888,0,0,1-1.049,2.112,4.737,4.737,0,0,1-2.473,1.274l-.639-1.295A4.349,4.349,0,0,0,95.54.879a2.348,2.348,0,0,0,.671-1.711,4.748,4.748,0,0,0-.149-1.125,7.548,7.548,0,0,0-.384-1.16l1.406-.5.439,1.406a1.179,1.179,0,0,0,.313.548.8.8,0,0,0,.513.144h.229V0h-.164a1.9,1.9,0,0,1-.466-.053A1.909,1.909,0,0,1,97.594-.176Zm4.131-4.664a7.786,7.786,0,0,1,.243,1.084,7.111,7.111,0,0,1,.091,1.084,2.588,2.588,0,0,1-.721,2.03A3.1,3.1,0,0,1,99.217,0h-.873V-1.523h.873a3.77,3.77,0,0,0,.853-.073.569.569,0,0,0,.407-.313,1.868,1.868,0,0,0,.111-.744,5.951,5.951,0,0,0-.082-.9q-.082-.524-.182-.94ZM99.908,1.775l.955-.949.955.955-.955.955Zm-1.975,0,.955-.949.955.949-.955.961ZM105.639-.07a2.833,2.833,0,0,1-.615.07,2.606,2.606,0,0,1-1.676-.489,1.784,1.784,0,0,1-.609-1.479,3.5,3.5,0,0,1,.129-.932,2.921,2.921,0,0,1,.4-.864,2.075,2.075,0,0,1,.674-.636,1.875,1.875,0,0,1,.97-.24,1.841,1.841,0,0,1,1.061.3,2.27,2.27,0,0,1,.715.8,4.016,4.016,0,0,1,.4,1.11,5.9,5.9,0,0,1,.129,1.225,4.156,4.156,0,0,1-1.02,2.912,5.117,5.117,0,0,1-2.959,1.477l-.527-1.348a5.19,5.19,0,0,0,1.916-.7A2.433,2.433,0,0,0,105.639-.07Zm.117-1.512a2.63,2.63,0,0,0-.316-1.21.7.7,0,0,0-.58-.343.487.487,0,0,0-.4.188,1.183,1.183,0,0,0-.217.454,2.029,2.029,0,0,0-.067.5.434.434,0,0,0,.164.384,1.437,1.437,0,0,0,.715.114A2.986,2.986,0,0,0,105.756-1.582Z" transform="translate(790 224)" fill="#fff"/>
  </g>
</svg>