<svg xmlns="http://www.w3.org/2000/svg" width="21" height="21" viewBox="0 0 21 21"><path d="M10.5,21A10.5,10.5,0,1,1,21,10.5,10.512,10.512,0,0,1,10.5,21ZM9.45,15.75h0v2.1h2.1v-2.1ZM10.5,5.25a2.236,2.236,0,0,1,.6.084A2.094,2.094,0,0,1,12.558,6.94a2.072,2.072,0,0,1-.577,1.89l-1.3,1.323A4.212,4.212,0,0,0,9.45,13.125v.524h2.1a4.824,4.824,0,0,1,.136-1.2,3.685,3.685,0,0,1,1.092-1.774l.945-.966a3.466,3.466,0,0,0,.2-4.62,4.4,4.4,0,0,0-3.49-1.935A3.68,3.68,0,0,0,9.86,3.2,4.219,4.219,0,0,0,6.468,6.174.929.929,0,0,0,6.617,7a.884.884,0,0,0,.712.354h.315A.922.922,0,0,0,8.5,6.667,2.112,2.112,0,0,1,10.5,5.25Z" fill="#85888f"/></svg>