<svg xmlns="http://www.w3.org/2000/svg" width="32" height="32" viewBox="0 0 32 32"><g transform="translate(-576 -3432)"><rect width="32" height="32" transform="translate(576 3432)" fill="rgba(0,0,0,0)"/><path d="M600.977,3446.425a1.323,1.323,0,0,1-1.319,1.319H584.92l6.439,6.439a1.315,1.315,0,0,1-1.86,1.86l-8.7-8.7a1.314,1.314,0,0,1,0-1.86l8.7-8.695a1.313,1.313,0,0,1,1.86,0,1.329,1.329,0,0,1,0,1.873l-6.439,6.439h14.738A1.323,1.323,0,0,1,600.977,3446.425Z" transform="translate(1.411 1.408)" fill="#f2f3f5"/></g></svg>