<svg xmlns="http://www.w3.org/2000/svg" width="156.684" height="44.959" viewBox="0 0 156.684 44.959"><g transform="translate(577.763 849.763)"><path d="M-415.816-804.049a4.516,4.516,0,0,1-4.509,4.509h-147.65a4.52,4.52,0,0,1-4.526-4.509v-35.941a4.52,4.52,0,0,1,4.526-4.509h147.65a4.505,4.505,0,0,1,4.509,4.509v35.941Z" transform="translate(-5.263 -5.263)" fill="none"/><g transform="translate(-505.419 -829.8)"><path d="M-129.674-725.638c.1.313.181.642.28.954a3.843,3.843,0,0,0,.115.411,4.009,4.009,0,0,1,.1.428,3.927,3.927,0,0,1,.082.428,3.419,3.419,0,0,1,.049.378.409.409,0,0,0,.016.132v.165a3.11,3.11,0,0,1-.132.872,3.556,3.556,0,0,1-.362.806,3.982,3.982,0,0,1-.56.741,5.514,5.514,0,0,1-.708.675,7.14,7.14,0,0,1-.806.576,6.266,6.266,0,0,1-.856.477l-.444-.905a9.843,9.843,0,0,0,1.053-.625,5.208,5.208,0,0,0,.905-.773,4.05,4.05,0,0,0,.642-.889,2.075,2.075,0,0,0,.247-.971v-.082a.28.28,0,0,0-.016-.115h0c-.016-.1-.033-.23-.049-.346a3.372,3.372,0,0,0-.082-.395l-.1-.4c-.033-.132-.066-.263-.1-.378-.082-.3-.165-.576-.263-.872Zm.247-2.107-.839.839-.856-.856.839-.839Z" transform="translate(132.9 730.74)" fill="#fff"/><path d="M-99.519-731.738q.074-1.185.1-2.222c.016-.691.016-1.349,0-1.942s-.033-1.119-.066-1.6-.066-.872-.1-1.2-.049-.592-.082-.773c-.016-.181-.033-.28-.033-.28l1.02-.148c0,.016.033.23.082.625.016.2.049.411.066.642s.033.477.049.741.033.51.049.741.016.461.033.675c.016.642.033,1.349.016,2.156,0,.806-.033,1.679-.1,2.633Z" transform="translate(105.164 740.18)" fill="#fff"/><path d="M-59.1-721.215a2.09,2.09,0,0,1-.329-.56,5.723,5.723,0,0,1-4.312,1.432,7.755,7.755,0,0,1-2.6-.378,2.708,2.708,0,0,1-1.5-1.152,2.136,2.136,0,0,1-.23-.527,3.143,3.143,0,0,1-.1-.543,2.815,2.815,0,0,1,0-.527c.016-.165.049-.329.082-.494.049-.165.082-.313.132-.444s.082-.247.115-.346a1.606,1.606,0,0,1,.1-.23.254.254,0,0,0,.049-.1l.889.494-.049.1a1.5,1.5,0,0,0-.1.263,3.6,3.6,0,0,0-.115.378,2.071,2.071,0,0,0-.066.444,1.593,1.593,0,0,0,.033.477,1.544,1.544,0,0,0,.165.461,1.973,1.973,0,0,0,1.119.79,6.69,6.69,0,0,0,2.074.263,8.2,8.2,0,0,0,1.942-.2,3.574,3.574,0,0,0,1.333-.625,2.426,2.426,0,0,0,.411-.411,2.74,2.74,0,0,0,.3-.461,2.928,2.928,0,0,0,.2-.477c.049-.165.1-.313.148-.477l.987.263c-.016.066-.033.148-.049.23s-.049.181-.066.28a1.475,1.475,0,0,0-.049.51,2.389,2.389,0,0,0,.066.461.957.957,0,0,0,.214.428,1.478,1.478,0,0,0,1.234.461.484.484,0,0,1,.362.148.484.484,0,0,1,.148.362.484.484,0,0,1-.148.362.484.484,0,0,1-.362.148h-.049A2.225,2.225,0,0,1-59.1-721.215Zm-4.443-4.229-.839.839-.856-.839.839-.839Zm2.123,0-.839.839-.856-.856.839-.839Z" transform="translate(78.827 728.818)" fill="#fff"/><path d="M-3.3-733.651a.484.484,0,0,1,.148-.362.51.51,0,0,1,.362-.148,10.278,10.278,0,0,0,1.053-.049,5.391,5.391,0,0,0,.856-.148,2.958,2.958,0,0,0,.642-.2,1.451,1.451,0,0,0,.395-.2.719.719,0,0,0,.115-.1c.033-.033.049-.066.082-.1H-.173A3.032,3.032,0,0,1-.716-735a2.166,2.166,0,0,1-.494-.132,3.464,3.464,0,0,1-.428-.214,1.414,1.414,0,0,1-.329-.3,1.4,1.4,0,0,1-.148-.23,1.381,1.381,0,0,1-.115-.313,1.44,1.44,0,0,1-.049-.395,2.493,2.493,0,0,1,.033-.477,3.107,3.107,0,0,1,.214-.724,3.492,3.492,0,0,1,.346-.592,1.546,1.546,0,0,1,.527-.461,1.314,1.314,0,0,1,.592-.148,1.6,1.6,0,0,1,1.234.609,3.346,3.346,0,0,1,.428.609,4.961,4.961,0,0,1,.3.741,3.454,3.454,0,0,1,.148.823,3.579,3.579,0,0,1,0,.839h0a3.639,3.639,0,0,1-.082.411c-.016.049-.033.1-.049.165a.881.881,0,0,1-.1.23,2.245,2.245,0,0,1-.2.28,1.821,1.821,0,0,1-.313.3,2.485,2.485,0,0,1-.625.346,5.081,5.081,0,0,1-.839.247,8.87,8.87,0,0,1-.987.148c-.346.033-.708.049-1.053.049H-2.79a.484.484,0,0,1-.362-.148A.326.326,0,0,1-3.3-733.651Zm3.423-7.093-.839.839-.856-.856.839-.839Zm-.691,2.8a.266.266,0,0,0-.165.066.845.845,0,0,0-.2.214,1.7,1.7,0,0,0-.181.346,3.078,3.078,0,0,0-.132.461.7.7,0,0,0,.082.576.67.67,0,0,0,.3.2,1.876,1.876,0,0,0,.477.1c.181,0,.346.016.494.016a2.923,2.923,0,0,0,.395-.016,3.083,3.083,0,0,0-.2-.955,2.041,2.041,0,0,0-.428-.741,1.227,1.227,0,0,0-.214-.181A.326.326,0,0,0-.568-737.947Z" transform="translate(24.628 741.6)" fill="#fff"/><path d="M37.687-729.8a3.3,3.3,0,0,1-.971-.132,1.842,1.842,0,0,1-.691-.411,1.356,1.356,0,0,1-.263-.362,1.855,1.855,0,0,1-.132-.395,1.468,1.468,0,0,1-.049-.362v-2.65c0-.3,0-.609-.016-.922,0-.329-.016-.625-.033-.938-.016-.3-.033-.576-.049-.823a4.864,4.864,0,0,0-.082-.625l1.02-.181a5.625,5.625,0,0,1,.082.642c.016.263.049.527.066.839.016.3.033.609.033.938s.016.642.016.954v2.5a2.917,2.917,0,0,0,.016.395.426.426,0,0,0,.148.28,1.175,1.175,0,0,0,.872.247H37.7a.438.438,0,0,1,.2.049.589.589,0,0,1,.165.115.59.59,0,0,1,.115.165.438.438,0,0,1,.049.2.484.484,0,0,1-.148.362A.539.539,0,0,1,37.687-729.8Z" transform="translate(-7.703 738.258)" fill="#fff"/><path d="M44.5-715.1a.484.484,0,0,1,.148-.362.484.484,0,0,1,.362-.148h.971c.148,0,.28-.016.428-.016a1.924,1.924,0,0,0,.428-.066,2.534,2.534,0,0,0,.379-.115,1.19,1.19,0,0,0,.313-.181.729.729,0,0,0,.2-.247,1.4,1.4,0,0,0,.066-.625,5.1,5.1,0,0,0-.214-.954c-.033-.115-.082-.23-.132-.362s-.1-.247-.148-.362c-.049-.132-.115-.263-.165-.395l.922-.461.049.1c.033.066.066.165.115.263.049.115.1.247.165.395a4.062,4.062,0,0,1,.165.477,3.285,3.285,0,0,1,.115,2.32,1.915,1.915,0,0,1-1.3,1.1,1.791,1.791,0,0,1-.362.066,4.029,4.029,0,0,1-.444.033c-.148,0-.3.016-.428.016H45.01a.484.484,0,0,1-.362-.148A.372.372,0,0,1,44.5-715.1Zm2.5,2.287-.839.839-.856-.839.839-.839Zm2.123.016-.839.839-.856-.856.839-.839Z" transform="translate(-15.306 723.053)" fill="#fff"/><path d="M75.626-710.6c.1.313.181.642.28.954a3.843,3.843,0,0,0,.115.411,4.012,4.012,0,0,1,.1.428,3.921,3.921,0,0,1,.082.428,3.421,3.421,0,0,1,.049.378.409.409,0,0,0,.016.132v.165a3.11,3.11,0,0,1-.132.872,3.556,3.556,0,0,1-.362.806,3.98,3.98,0,0,1-.56.741,5.512,5.512,0,0,1-.708.675,7.14,7.14,0,0,1-.806.576,6.28,6.28,0,0,1-.856.477l-.444-.905a9.831,9.831,0,0,0,1.053-.625,5.207,5.207,0,0,0,.905-.773,4.049,4.049,0,0,0,.642-.889,2.075,2.075,0,0,0,.247-.971v-.082a.28.28,0,0,0-.016-.115h0c-.016-.1-.033-.23-.049-.346a3.37,3.37,0,0,0-.082-.395l-.1-.395c-.033-.132-.066-.263-.1-.379-.082-.3-.165-.576-.263-.872Z" transform="translate(-38.614 715.702)" fill="#fff"/><path d="M105.287-719.958a2.818,2.818,0,0,1-.592-.066c-.23-.049-.444-.1-.675-.165a4.339,4.339,0,0,1-.609-.214,1.492,1.492,0,0,1-.411-.247l.428-.971a3.888,3.888,0,0,0,.461.247,2.963,2.963,0,0,0,.576.2c.2.049.411.1.625.132a2.674,2.674,0,0,0,.625.016,2.132,2.132,0,0,0,.56-.132,1.153,1.153,0,0,0,.428-.313c.1-.1.1-.313.033-.592a2.5,2.5,0,0,0-.181-.527,3.9,3.9,0,0,0-.313-.56,5.642,5.642,0,0,0-.395-.543,4.416,4.416,0,0,0-.461-.494,5.04,5.04,0,0,0-.477-.395,2.969,2.969,0,0,0-.477-.28l.411-.938a3.946,3.946,0,0,1,.609.362,5.717,5.717,0,0,1,.609.494,6.635,6.635,0,0,1,.56.609,4.585,4.585,0,0,1,.477.675,7.183,7.183,0,0,1,.379.691,4.1,4.1,0,0,1,.23.675,2.093,2.093,0,0,1,.066.527,1.566,1.566,0,0,1-.049.411,1.38,1.38,0,0,1-.115.313,1.4,1.4,0,0,1-.148.23,2.244,2.244,0,0,1-1.333.757,1.652,1.652,0,0,1-.411.066A1.739,1.739,0,0,1,105.287-719.958Z" transform="translate(-64.179 728.4)" fill="#fff"/></g><g transform="translate(-569.387 -841.815)"><g transform="translate(0 3.029)"><path d="M-481.138-741.076a1.616,1.616,0,0,0,1.185-.494,2.048,2.048,0,0,0,.247-.313,2.185,2.185,0,0,0,.23.313,1.58,1.58,0,0,0,1.168.494,1.554,1.554,0,0,0,1.168-.494,1.6,1.6,0,0,0,.477-1.185,1.6,1.6,0,0,0-.477-1.168,1.6,1.6,0,0,0-1.168-.477,1.6,1.6,0,0,0-1.168.477,1.024,1.024,0,0,0-.23.313,1.477,1.477,0,0,0-.247-.313,1.6,1.6,0,0,0-1.185-.477,1.58,1.58,0,0,0-1.168.494,1.645,1.645,0,0,0-.494,1.168,1.667,1.667,0,0,0,.477,1.185A1.667,1.667,0,0,0-481.138-741.076Z" transform="translate(489.185 752.925)" fill="#fff"/><path d="M-479.767-786.68a1.2,1.2,0,0,0-.971.428,1.443,1.443,0,0,0-.395,1.02,6.43,6.43,0,0,0,.214,1.267,6.073,6.073,0,0,1,.214,1.267c0,1-.724,1.514-2.156,1.514h-1.679a5.273,5.273,0,0,1-3.67-1.679c-1.366-1.349-2.271-2.255-2.748-2.732-1.679-1.629-3.11-2.913-4.312-3.9a.706.706,0,0,1-.3-.543.5.5,0,0,1,.362-.444,54.992,54.992,0,0,1,7.718-2.353c.856-.181,1.267-.642,1.267-1.349,0-.938-.543-1.415-1.646-1.415a3.577,3.577,0,0,0-.658.082,31.79,31.79,0,0,0-8.821,3.127,2.7,2.7,0,0,0-1.251,2.5,2.7,2.7,0,0,0,.28,1.349,17.7,17.7,0,0,0,3.225,3.226c1.629,1.4,2.436,2.353,2.436,2.847,0,.675-.691,1.07-2.074,1.218-.3.033-1.415.033-3.374.033h-.872c-1.3,0-2.041-.527-2.255-1.58-.115-.592-.181-.954-.214-1.1a.994.994,0,0,0-1-.642c-.444,0-.806.28-1.053.856a10.694,10.694,0,0,1-.79,1.613c-.856,1.086-3.127,1.629-6.8,1.629h-1.777c-2.5,0-4.213-.28-5.134-.872a2,2,0,0,1-.938-1.81,5.584,5.584,0,0,1,.148-1.053,5.761,5.761,0,0,0,.148-1.053.927.927,0,0,0-1.053-1.053c-.658,0-1.185.576-1.531,1.728a8.559,8.559,0,0,0-.378,2.518q0,5.036,8.59,5.036c5.5,0,8.92-.856,10.2-2.584a3.284,3.284,0,0,0,3.291,1.777h1.037a20.273,20.273,0,0,0,5.25-.461,3.916,3.916,0,0,0,2.88-2.946,7.172,7.172,0,0,0,6.007,3.407h1.3a5.051,5.051,0,0,0,3.785-1.415,5.248,5.248,0,0,0,1.366-3.851Q-477.916-786.68-479.767-786.68Z" transform="translate(521.6 795.699)" fill="#fff"/><path d="M-306.529-676.6a1.58,1.58,0,0,0-1.168.494,1.728,1.728,0,0,0-.428.724,1.634,1.634,0,0,0-.428-.724,1.58,1.58,0,0,0-1.168-.494,1.667,1.667,0,0,0-1.185.477,1.554,1.554,0,0,0-.494,1.168,1.616,1.616,0,0,0,.494,1.185,1.616,1.616,0,0,0,1.185.494,1.554,1.554,0,0,0,1.168-.494,1.655,1.655,0,0,0,.411-.741,1.655,1.655,0,0,0,.411.741,1.58,1.58,0,0,0,1.168.494,1.616,1.616,0,0,0,1.185-.494,1.616,1.616,0,0,0,.494-1.185,1.554,1.554,0,0,0-.494-1.168A1.591,1.591,0,0,0-306.529-676.6Z" transform="translate(345.992 696.282)" fill="#fff"/><path d="M-231.585-784.845a2.857,2.857,0,0,0-2.551-1.415,3.857,3.857,0,0,0-2.748,1.481c-.181.214-.642.839-1.366,1.876a2.74,2.74,0,0,1-.954.954,2.69,2.69,0,0,1-1.284.247h-.379c-1.53,0-2.271-.938-2.271-2.8v-9.759c0-1.3-.494-1.942-1.481-1.942a1.3,1.3,0,0,0-1.152.625,2.41,2.41,0,0,0-.329,1.317l.329,9.232a14.048,14.048,0,0,0,.708,4.69c.642,1.366,1.925,2.041,3.851,2.041h1.053a3.7,3.7,0,0,0,2.715-1.119,4.011,4.011,0,0,0,3.242,1.5,2.965,2.965,0,0,0,2.5-1.251,4.316,4.316,0,0,0,.856-2.715A5.089,5.089,0,0,0-231.585-784.845Zm-2.666,4.114a2.519,2.519,0,0,1-1.053-.28c-.444-.23-.658-.494-.658-.773a1.415,1.415,0,0,1,.56-1.07,1.764,1.764,0,0,1,1.119-.51,1.049,1.049,0,0,1,.905.527,1.97,1.97,0,0,1,.28,1.053C-233.1-781.076-233.478-780.731-234.251-780.731Z" transform="translate(291.438 796.2)" fill="#fff"/></g></g><g transform="translate(-457.596 -842.028)"><g transform="translate(0 0)"><circle cx="14.745" cy="14.745" r="14.745" fill="#00b0ff"/><g transform="translate(5.447 7.998)"><path d="M209.149-762.3a5.223,5.223,0,0,0-5.233-5,5.236,5.236,0,0,0-3.933,1.777,5.236,5.236,0,0,0-3.933-1.777,5.246,5.246,0,0,0-5.233,4.855c0,.066-.016.132-.016.2v5.924a1.32,1.32,0,0,0,1.317,1.317h.033a1.32,1.32,0,0,0,1.317-1.317v-5.727h0a2.606,2.606,0,0,1,2.6-2.6,2.606,2.606,0,0,1,2.6,2.6h0v4.838a1.32,1.32,0,0,0,1.317,1.317h.033a1.32,1.32,0,0,0,1.317-1.317v-4.838a2.606,2.606,0,0,1,2.6-2.6,2.606,2.606,0,0,1,2.6,2.6h0v5.743a1.292,1.292,0,0,0,1.3,1.3h.033a1.292,1.292,0,0,0,1.3-1.3v-5.859A.409.409,0,0,1,209.149-762.3Z" transform="translate(-190.8 767.3)" fill="#fff"/><path d="M230.846-689.74c-.066-.1-.247.1-.247.1a5.422,5.422,0,0,1-3.8,1.3,5.451,5.451,0,0,1-3.8-1.3s-.2-.2-.247-.1c-.082.115.033.3.033.3A4.621,4.621,0,0,0,226.8-687.5a4.66,4.66,0,0,0,4.015-1.942A.288.288,0,0,0,230.846-689.74Z" transform="translate(-217.467 702.527)" fill="#fff"/></g></g></g></g></svg>