<svg xmlns="http://www.w3.org/2000/svg" width="19" height="19" viewBox="0 0 19 19"><path d="M16.889,19H2.111A2.113,2.113,0,0,1,0,16.889V2.112A2.114,2.114,0,0,1,2.111,0H16.889A2.114,2.114,0,0,1,19,2.112V16.889A2.113,2.113,0,0,1,16.889,19Zm-3.166-8.445a1.057,1.057,0,0,0-1.055,1.055v2.112a1.055,1.055,0,1,0,2.111,0V11.611A1.057,1.057,0,0,0,13.723,10.555ZM9.5,4.223A1.057,1.057,0,0,0,8.445,5.278v8.445a1.055,1.055,0,1,0,2.111,0V5.278A1.057,1.057,0,0,0,9.5,4.223ZM5.278,7.389A1.057,1.057,0,0,0,4.223,8.445v5.278a1.055,1.055,0,1,0,2.111,0V8.445A1.057,1.057,0,0,0,5.278,7.389Z" fill="#85888f"/></svg>