<svg xmlns="http://www.w3.org/2000/svg" width="24" height="15" viewBox="0 0 24 15"><path d="M23.5,15H20.95a3.62,3.62,0,0,0,.05-.577V12.693a4.542,4.542,0,0,0-1.38-3.278C21.641,9.821,24,10.925,24,12.693v1.731A.537.537,0,0,1,23.5,15ZM18,15H8a1.086,1.086,0,0,1-1-1.154V12.693c0-2.273,3.906-3.463,6-3.463s6,1.19,6,3.463v1.154A1.086,1.086,0,0,1,18,15ZM4,11.539a1.087,1.087,0,0,1-1-1.155V8.076H1A1.086,1.086,0,0,1,0,6.923,1.086,1.086,0,0,1,1,5.769H3V3.461A1.086,1.086,0,0,1,4,2.308,1.086,1.086,0,0,1,5,3.461V5.769H7A1.086,1.086,0,0,1,8,6.923,1.086,1.086,0,0,1,7,8.076H5v2.307A1.087,1.087,0,0,1,4,11.539ZM18,6.923a2.61,2.61,0,0,1-.91-.161,6.483,6.483,0,0,0,.9-3.3,6.333,6.333,0,0,0-.9-3.3A2.607,2.607,0,0,1,18,0a3.256,3.256,0,0,1,2.99,3.461A3.256,3.256,0,0,1,18,6.923Zm-5-.011a3.253,3.253,0,0,1-3-3.45A3.251,3.251,0,0,1,13,.013a3.251,3.251,0,0,1,3,3.449A3.252,3.252,0,0,1,13,6.912Z" fill="#85888f"/></svg>