<svg xmlns="http://www.w3.org/2000/svg" width="20" height="20" viewBox="0 0 20 20"><path d="M655.99,352a10,10,0,1,1,10-10A10.011,10.011,0,0,1,655.99,352Zm-1.9-6h0a14.059,14.059,0,0,0,1.91,3.96,14.087,14.087,0,0,0,1.91-3.96h-3.82Zm5.88,0h0a15.692,15.692,0,0,1-1.38,3.56,8.022,8.022,0,0,0,4.33-3.56Zm-10.89,0a7.993,7.993,0,0,0,4.33,3.56,15.607,15.607,0,0,1-1.38-3.56Zm4.58-6a14.334,14.334,0,0,0-.16,2,14.777,14.777,0,0,0,.16,2h4.68a14.722,14.722,0,0,0,.16-2,14.314,14.314,0,0,0-.16-2Zm6.7,0h0a14.314,14.314,0,0,1,0,4h3.38a7.817,7.817,0,0,0,0-4Zm-12.1,0h0a7.817,7.817,0,0,0,0,4h3.379a14.407,14.407,0,0,1,0-4H648.26Zm10.33-5.56a15.689,15.689,0,0,1,1.38,3.56h2.95a8.025,8.025,0,0,0-4.33-3.56Zm-2.59-.4A14.057,14.057,0,0,0,654.09,338h3.82A14.086,14.086,0,0,0,656,334.04Zm-2.59.4a8,8,0,0,0-4.33,3.56h2.95a15.6,15.6,0,0,1,1.38-3.56Z" transform="translate(-645.99 -332)" fill="#f2f3f5"/></svg>